<svg xmlns="http://www.w3.org/2000/svg" xmlns:xlink="http://www.w3.org/1999/xlink" viewBox="0 0 300 68">
    <title>Laravel Pint logo</title>
    <style>
        g path { fill: #000 } @media (prefers-color-scheme:dark) { g path { fill: #fff } }
    </style>
    <g>
        <path fill="#000" d="M98.9,44.2h9.1v4.3H94V19h4.9V44.2z M125.2,31.5c-0.6-1-1.5-1.8-2.6-2.3c-1.1-0.6-2.3-0.8-3.5-0.8c-1.5,0-2.9,0.3-4.1,0.8 c-1.2,0.5-2.3,1.3-3.2,2.3c-0.9,1-1.6,2.1-2.1,3.3c-0.5,1.3-0.7,2.6-0.7,3.9c0,1.4,0.2,2.7,0.7,4c0.5,1.2,1.2,2.3,2.1,3.3 c0.9,1,2,1.7,3.2,2.3c1.2,0.5,2.6,0.8,4.1,0.8c1.2,0,2.3-0.3,3.5-0.8c1.1-0.6,2-1.3,2.6-2.3v2.7h4.6V28.9h-4.6V31.5z M124.8,41.1 c-0.3,0.8-0.7,1.4-1.2,2c-0.5,0.6-1.1,1-1.8,1.3c-0.7,0.3-1.5,0.5-2.4,0.5c-0.9,0-1.7-0.2-2.4-0.5c-0.7-0.3-1.3-0.8-1.8-1.3 c-0.5-0.6-0.9-1.2-1.2-2c-0.3-0.8-0.4-1.6-0.4-2.4c0-0.8,0.1-1.6,0.4-2.4c0.3-0.8,0.7-1.4,1.2-2c0.5-0.6,1.1-1,1.8-1.3 c0.7-0.3,1.5-0.5,2.4-0.5c0.9,0,1.7,0.2,2.4,0.5c0.7,0.3,1.3,0.8,1.8,1.3c0.5,0.6,0.9,1.2,1.2,2c0.3,0.8,0.4,1.6,0.4,2.4 C125.2,39.5,125.1,40.3,124.8,41.1z M162.7,31.5c-0.6-1-1.5-1.8-2.6-2.3c-1.1-0.6-2.3-0.8-3.5-0.8c-1.5,0-2.9,0.3-4.1,0.8 c-1.2,0.5-2.3,1.3-3.2,2.3c-0.9,1-1.6,2.1-2.1,3.3c-0.5,1.3-0.7,2.6-0.7,3.9c0,1.4,0.2,2.7,0.7,4c0.5,1.2,1.2,2.3,2.1,3.3 c0.9,1,2,1.7,3.2,2.3c1.2,0.5,2.6,0.8,4.1,0.8c1.2,0,2.3-0.3,3.5-0.8c1.1-0.6,2-1.3,2.6-2.3v2.7h4.6V28.9h-4.6V31.5z M162.3,41.1 c-0.3,0.8-0.7,1.4-1.2,2c-0.5,0.6-1.1,1-1.8,1.3c-0.7,0.3-1.5,0.5-2.4,0.5c-0.9,0-1.7-0.2-2.4-0.5c-0.7-0.3-1.3-0.8-1.8-1.3 c-0.5-0.6-0.9-1.2-1.2-2c-0.3-0.8-0.4-1.6-0.4-2.4c0-0.8,0.1-1.6,0.4-2.4c0.3-0.8,0.7-1.4,1.2-2c0.5-0.6,1.1-1,1.8-1.3 c0.7-0.3,1.5-0.5,2.4-0.5c0.9,0,1.7,0.2,2.4,0.5c0.7,0.3,1.3,0.8,1.8,1.3c0.5,0.6,0.9,1.2,1.2,2c0.3,0.8,0.4,1.6,0.4,2.4 C162.7,39.5,162.6,40.3,162.3,41.1z M213.4,19h4.6v29.5h-4.6V19z M133.5,28.9H146v4.5h-7.9v15.1h-4.6V28.9z M190.5,28.9L183,48.5 h-5.8l-7.6-19.6h4.7l5.8,15l5.8-15H190.5z M200.6,28.4c-5.7,0-10.1,4.6-10.1,10.3c0,6.3,4.3,10.3,10.7,10.3c3.6,0,5.9-1.4,8.6-4.3 l-3.1-2.4c0,0-2.4,3.1-5.9,3.1c-4.1,0-5.8-3.3-5.8-5h15.3C211.2,33.9,206.9,28.4,200.6,28.4z M195.1,37c0-0.4,0.6-5,5.5-5 c4.9,0,5.5,4.6,5.6,5H195.1z"/>
        <path fill="#000" d="M252.6,24c-1.5-1.3-3.6-2-6.3-2H236v26.8h2.3v-12h7.9c2.6,0,4.7-0.7,6.3-2c1.5-1.3,2.3-3.1,2.3-5.4 C254.9,27.1,254.1,25.3,252.6,24z M250.9,33.3c-1.1,0.9-2.7,1.4-4.8,1.4h-7.8V24h7.8c2.1,0,3.7,0.5,4.8,1.4 c1.1,0.9,1.6,2.2,1.6,3.9C252.5,31.1,252,32.4,250.9,33.3z M259.1,29.9h2.2v18.8h-2.2V29.9z M258.7,22.2h3v2.9h-3V22.2z M283.1,36.8v12h-2.3V36.9c0-1.9-0.4-3.3-1.1-4.1c-0.8-0.9-2-1.3-3.6-1.3c-1.9,0-3.4,0.6-4.5,1.7c-1.1,1.2-1.7,2.7-1.7,4.7v10.9 h-2.2V35.2c0-2-0.1-3.7-0.3-5.2h2.2l0.3,3.5c0.6-1.3,1.4-2.2,2.6-2.9c1.1-0.7,2.5-1,4-1C280.9,29.5,283.1,31.9,283.1,36.8z M292.5,31.8V43c0,1.5,0.3,2.5,0.9,3.1c0.6,0.6,1.4,0.9,2.5,0.9c0.7,0,1.4-0.1,2-0.3v2.1c-0.8,0.2-1.6,0.3-2.4,0.3 c-1.6,0-2.9-0.5-3.9-1.4s-1.4-2.3-1.4-4.2V31.8h-3.7v-1.8h3.7v-5l2.3-0.9v5.9h5.5v1.8H292.5z"/>
    </g>
    <g>
        <circle id="b" cx="34" cy="34" r="32" />
        <rect clip-path="url(#a)" fill="#FFA300" x="2" y="2" width="64" height="64" />
        <polygon opacity=".9" clip-path="url(#a)" fill="#fed100" points="47,66 21,66 18,24 50,24" />
        <polygon opacity=".5" clip-path="url(#a)" fill="#ffffff" points="30,66 21,66 18,24 29,24" />
        <rect clip-path="url(#a)" fill="#ffffff" x="18" y="16" width="32" height="8" />
        <clipPath id="a"><use xlink:href="#b" /></clipPath>
    </g>
</svg>
