<svg width="407" height="64" viewBox="0 0 407 64" fill="none" xmlns="http://www.w3.org/2000/svg">
    <style>
        .laravel { fill: #1B1B18 } @media (prefers-color-scheme:dark) { .laravel { fill: #fff } }
        .pint { fill: #868682 } @media (prefers-color-scheme:dark) { .pint { fill: #A1A09A } }
    </style>
<rect width="64" height="64" fill="#F58D32"/>
<path fill-rule="evenodd" clip-rule="evenodd" d="M26.4111 45.5L33.2093 18H37.589L30.7908 45.5H26.4111ZM18.0088 31.7503L24.8071 24.8753L21.8027 21.8369L12 31.7503L21.8027 41.6636L24.8071 38.6253L18.0088 31.7503ZM52 31.7503L42.1973 21.8369L39.1929 24.8753L45.9912 31.7503L39.1929 38.6253L42.1973 41.6636L52 31.7503Z" fill="#FDFDFC"/>
<path class="laravel" d="M103.659 7.625H96V55.5535H118.046V48.5012H103.659V7.625Z" />
<path class="laravel" d="M145.087 27.9603C144.109 26.3627 142.722 25.1079 140.924 24.1946C139.126 23.2817 137.316 22.8251 135.496 22.8251C133.141 22.8251 130.988 23.2703 129.035 24.1602C127.08 25.0501 125.404 26.2723 124.006 27.8235C122.607 29.3757 121.519 31.1675 120.742 33.1978C119.964 35.2297 119.576 37.3643 119.576 39.6003C119.576 41.8831 119.964 44.0283 120.742 46.0362C121.519 48.0455 122.607 49.8258 124.006 51.377C125.404 52.9292 127.08 54.15 129.035 55.0399C130.988 55.9298 133.141 56.375 135.496 56.375C137.316 56.375 139.126 55.9183 140.924 55.0059C142.722 54.0936 144.11 52.8383 145.087 51.2402V55.5539H152.346V23.6471H145.087V27.9603ZM144.421 43.5027C143.977 44.7355 143.355 45.8081 142.556 46.7209C141.756 47.6342 140.791 48.3644 139.659 48.912C138.526 49.46 137.271 49.7335 135.895 49.7335C134.518 49.7335 133.275 49.46 132.165 48.912C131.054 48.364 130.1 47.6342 129.301 46.7209C128.502 45.8081 127.891 44.7355 127.469 43.5027C127.047 42.2705 126.837 40.9693 126.837 39.6003C126.837 38.2307 127.047 36.9296 127.469 35.6973C127.89 34.465 128.502 33.3929 129.301 32.4796C130.1 31.5672 131.055 30.8361 132.165 30.2886C133.275 29.7406 134.518 29.467 135.895 29.467C137.271 29.467 138.526 29.7406 139.659 30.2886C140.791 30.8366 141.756 31.5672 142.556 32.4796C143.355 33.3929 143.977 34.465 144.421 35.6973C144.864 36.9296 145.087 38.2307 145.087 39.6003C145.087 40.9693 144.864 42.2705 144.421 43.5027Z" />
<path class="laravel" d="M204.099 27.9603C203.121 26.3627 201.734 25.1079 199.936 24.1946C198.138 23.2817 196.328 22.8251 194.508 22.8251C192.153 22.8251 190.001 23.2703 188.047 24.1602C186.093 25.0501 184.417 26.2723 183.018 27.8235C181.619 29.3757 180.531 31.1675 179.754 33.1978C178.977 35.2297 178.589 37.3643 178.589 39.6003C178.589 41.8831 178.977 44.0283 179.754 46.0362C180.531 48.0455 181.619 49.8258 183.018 51.377C184.417 52.9292 186.092 54.15 188.047 55.0399C190 55.9298 192.153 56.375 194.508 56.375C196.328 56.375 198.138 55.9183 199.936 55.0059C201.734 54.0936 203.122 52.8383 204.099 51.2402V55.5539H211.359V23.6471H204.099V27.9603ZM203.433 43.5027C202.988 44.7355 202.367 45.8081 201.568 46.7209C200.768 47.6342 199.803 48.3644 198.67 48.912C197.538 49.46 196.283 49.7335 194.907 49.7335C193.53 49.7335 192.286 49.46 191.177 48.912C190.066 48.364 189.112 47.6342 188.313 46.7209C187.513 45.8081 186.903 44.7355 186.481 43.5027C186.058 42.2705 185.849 40.9693 185.849 39.6003C185.849 38.2307 186.058 36.9296 186.481 35.6973C186.902 34.465 187.513 33.3929 188.313 32.4796C189.112 31.5672 190.067 30.8361 191.177 30.2886C192.286 29.7406 193.53 29.467 194.907 29.467C196.283 29.467 197.538 29.7406 198.67 30.2886C199.803 30.8366 200.768 31.5672 201.568 32.4796C202.367 33.3929 202.988 34.465 203.433 35.6973C203.876 36.9296 204.099 38.2307 204.099 39.6003C204.099 40.9693 203.876 42.2705 203.433 43.5027Z" />
<path class="laravel" d="M291 7.625H283.741V55.5535H291V7.625Z" />
<path class="laravel" d="M158.075 55.5535H165.335V30.9901H177.79V23.6471H158.075V55.5535Z" />
<path class="laravel" d="M240.465 23.6471L231.34 48.0804L222.216 23.6471H214.862L226.778 55.5535H235.902L247.818 23.6471H240.465Z" />
<path class="laravel" d="M263.652 22.8265C254.762 22.8265 247.725 30.3369 247.725 39.6007C247.725 49.8416 254.536 56.375 264.582 56.375C270.205 56.375 273.795 54.1648 278.181 49.3514L273.276 45.4504C273.273 45.4542 269.574 50.4469 264.051 50.4469C257.631 50.4469 254.928 45.1262 254.928 42.3733H279.013C280.278 31.8326 273.537 22.8265 263.652 22.8265ZM254.947 36.8278C255.003 36.2138 255.839 28.7541 263.594 28.7541C271.349 28.7541 272.291 36.2128 272.345 36.8278H254.947Z" />
<path class="pint" d="M402.108 56.2835C398.538 56.2835 395.934 55.4855 394.296 53.8895C392.7 52.2515 391.902 49.8995 391.902 46.8335V16.0895L396.942 14.1995V46.7705C396.942 48.5765 397.404 49.8995 398.328 50.7395C399.252 51.5795 400.764 51.9995 402.864 51.9995C403.704 51.9995 404.418 51.9575 405.006 51.8735C405.636 51.7475 406.14 51.6005 406.518 51.4325V55.7165C406.098 55.8845 405.489 56.0105 404.691 56.0945C403.935 56.2205 403.074 56.2835 402.108 56.2835ZM385.287 27.8705V23.5865H406.518V27.8705H385.287Z" />
<path class="pint" d="M354.404 55.7165V23.5865H359.129V31.1465H359.444V55.7165H354.404ZM377.399 55.7165V34.6745C377.399 32.2385 376.79 30.4115 375.572 29.1935C374.354 27.9755 372.548 27.3665 370.154 27.3665C368.054 27.3665 366.185 27.8285 364.547 28.7525C362.951 29.6765 361.691 30.9575 360.767 32.5955C359.885 34.2335 359.444 36.1445 359.444 38.3285L358.625 30.7055C359.717 28.3115 361.376 26.4215 363.602 25.0355C365.87 23.6495 368.432 22.9565 371.288 22.9565C374.648 22.9565 377.336 23.9225 379.352 25.8545C381.41 27.7445 382.439 30.2435 382.439 33.3515V55.7165H377.399Z" />
<path class="pint" d="M341.269 55.7164V23.5864H346.309V55.7164H341.269ZM340.891 16.2784V10.3564H346.687V16.2784H340.891Z" />
<path class="pint" d="M303 55.7165V7.71655H321.018C324.252 7.71655 327.003 8.24155 329.271 9.29155C331.539 10.3416 333.261 11.8536 334.437 13.8276C335.655 15.8016 336.264 19.1746 336.264 21.9466C336.264 24.7186 335.655 28.1126 334.437 30.1286C333.261 32.1026 331.539 33.6356 329.271 34.7276C327.003 35.8196 324.252 36.3656 321.018 36.3656H306.78V31.8296H320.829C324.189 31.8296 326.73 31.0736 328.452 29.5616C330.216 28.0076 331.098 24.8026 331.098 21.9466C331.098 19.0906 330.237 15.9276 328.515 14.4576C326.793 12.9876 324.231 12.2526 320.829 12.2526H308.166V55.7165H303Z" />
</svg>
